<?xml version="1.0" standalone="no"?>
<!DOCTYPE svg PUBLIC "-//W3C//DTD SVG 20010904//EN"
 "http://www.w3.org/TR/2001/REC-SVG-20010904/DTD/svg10.dtd">
<svg version="1.0" xmlns="http://www.w3.org/2000/svg"
 width="30pt" height="40" viewBox="0 0 300.000000 784.000000"
 preserveAspectRatio="xMidYMid meet">
<g transform="translate(0.000000,784.000000) scale(0.100000,-0.100000)"
fill="#000000" stroke="none">
<path d="M621 7698 c-7 -24 -13 -50 -15 -58 -1 -8 -10 -32 -20 -52 -10 -20
-14 -42 -10 -49 4 -8 3 -9 -4 -5 -8 4 -12 0 -12 -12 0 -10 -9 -37 -20 -60 -11
-22 -21 -49 -23 -59 -2 -10 -13 -38 -25 -63 -32 -69 -72 -167 -75 -187 -2 -10
-13 -40 -25 -67 -13 -28 -20 -56 -17 -63 3 -8 0 -11 -6 -7 -6 3 -10 -1 -9 -12
1 -11 1 -22 0 -26 -1 -5 -3 -11 -4 -15 -1 -5 -4 -12 -7 -18 -13 -21 -41 -117
-36 -122 3 -2 -6 -35 -19 -71 -14 -36 -23 -74 -21 -84 3 -10 1 -16 -4 -12 -5
3 -9 -5 -8 -18 1 -25 0 -27 -25 -112 -10 -32 -20 -73 -22 -90 -4 -35 -6 -45
-29 -134 -9 -35 -14 -70 -11 -78 3 -9 1 -12 -4 -9 -6 4 -10 -5 -9 -22 1 -15
-10 -80 -24 -143 -14 -63 -26 -133 -26 -155 0 -22 -2 -51 -5 -64 -12 -52 -28
-233 -22 -247 4 -9 2 -12 -5 -8 -8 4 -10 -8 -8 -39 2 -25 1 -43 -3 -41 -4 3
-7 -19 -7 -48 0 -29 -2 -64 -4 -78 -16 -92 -28 -206 -25 -235 2 -18 0 -31 -4
-29 -23 14 1 -680 27 -796 4 -14 6 -47 6 -75 0 -41 15 -145 46 -315 2 -14 4
-40 3 -58 0 -21 3 -31 10 -27 6 3 7 0 4 -10 -4 -8 4 -57 16 -108 13 -50 23
-101 22 -112 -1 -11 8 -54 19 -95 11 -41 22 -82 24 -90 2 -8 4 -30 4 -48 1
-22 5 -31 13 -26 7 4 8 3 4 -5 -4 -6 0 -37 10 -69 10 -31 19 -68 21 -82 2 -14
15 -61 28 -104 14 -44 25 -85 25 -92 0 -17 28 -104 40 -126 6 -10 10 -28 10
-41 0 -13 12 -52 26 -88 14 -35 27 -76 29 -90 2 -15 12 -44 21 -65 9 -22 18
-42 19 -46 2 -5 3 -9 4 -10 2 -2 4 -15 6 -29 2 -14 11 -43 21 -65 9 -21 18
-42 19 -46 2 -5 3 -9 5 -10 1 -2 3 -12 5 -23 4 -27 62 -191 77 -218 7 -12 13
-29 14 -37 6 -31 36 -100 45 -100 5 0 8 -3 8 -8 -5 -27 2 -52 13 -46 6 4 8 3
5 -3 -7 -12 14 -63 26 -63 5 0 5 -4 2 -10 -3 -5 -1 -10 5 -10 6 0 9 -3 6 -8
-2 -4 6 -30 20 -57 13 -28 24 -54 24 -59 0 -4 11 -30 25 -58 14 -27 25 -56 25
-64 0 -9 5 -12 12 -8 7 4 8 3 4 -5 -4 -6 2 -24 13 -40 11 -15 18 -31 14 -35
-3 -3 -1 -6 6 -6 7 0 10 -4 6 -10 -3 -5 7 -33 22 -62 15 -29 28 -58 29 -64 1
-6 12 -33 23 -60 l22 -49 20 25 c39 50 60 80 56 80 -3 0 11 17 30 38 20 20 67
80 106 132 39 52 83 108 99 124 15 16 25 33 22 38 -3 4 -1 8 5 8 5 0 41 42 79
93 38 50 76 98 85 106 22 18 21 37 -3 58 -11 10 -20 22 -20 28 0 6 -13 25 -29
42 -16 18 -27 34 -25 36 2 2 -7 16 -20 30 -14 15 -22 27 -19 27 4 0 -3 10 -14
23 -12 12 -35 46 -53 75 -17 28 -35 52 -38 52 -4 0 -18 23 -32 51 -14 28 -35
62 -47 75 -12 13 -20 24 -17 24 7 0 -47 84 -60 92 -6 4 -7 8 -3 8 11 0 -25 60
-36 60 -4 0 -5 5 -2 10 3 6 1 10 -6 10 -7 0 -9 3 -6 6 8 8 -33 84 -45 84 -4 0
-4 7 -1 17 5 12 3 14 -7 8 -9 -5 -11 -4 -6 4 4 6 -1 26 -12 44 -11 17 -23 43
-27 57 -5 14 -18 41 -31 61 -13 20 -21 39 -18 41 2 3 -2 18 -11 34 -8 16 -15
35 -15 42 0 6 -4 12 -10 12 -5 0 -10 14 -10 31 0 20 -4 28 -12 23 -7 -4 -8 -3
-4 5 4 7 0 29 -10 49 -10 20 -19 40 -20 45 -1 4 -2 8 -3 10 -1 1 -4 17 -7 34
-2 18 -13 53 -25 77 -11 24 -22 59 -24 78 -1 18 -10 53 -20 78 -9 25 -18 61
-21 80 -5 40 -15 80 -40 160 -9 30 -16 70 -16 88 1 19 -3 30 -8 27 -6 -3 -7 1
-4 9 3 9 -1 49 -11 90 -23 106 -27 129 -27 146 0 8 -8 78 -19 155 -29 207 -29
206 -33 323 -3 59 -12 211 -20 337 -30 446 -37 756 -22 900 23 220 45 503 45
577 0 48 3 97 6 110 9 41 44 471 44 543 0 39 2 88 5 110 16 112 37 394 32 420
-4 18 -3 25 2 17 6 -8 11 23 15 79 8 102 -3 135 -22 67z m-32 -338 c-21 -237
-30 -374 -34 -480 -3 -63 -9 -151 -15 -195 -14 -112 -30 -338 -31 -437 -1 -46
-4 -75 -8 -65 -4 10 -8 -32 -9 -93 -1 -61 -7 -139 -13 -173 -14 -82 -18 -503
-7 -742 5 -104 10 -231 11 -282 1 -50 5 -89 8 -87 3 1 6 -34 6 -79 0 -80 18
-328 29 -397 3 -19 7 -53 9 -75 2 -22 8 -69 14 -105 6 -36 12 -85 15 -110 10
-83 85 -444 116 -555 53 -193 61 -220 70 -240 4 -11 23 -67 41 -125 17 -58 35
-109 40 -115 4 -5 21 -44 37 -86 17 -42 46 -105 64 -140 18 -35 42 -84 52
-109 10 -25 24 -52 31 -60 7 -8 28 -44 46 -80 18 -36 35 -67 38 -70 4 -3 18
-23 32 -45 118 -185 214 -325 222 -325 5 0 6 -7 3 -16 -3 -8 -2 -13 3 -10 5 3
19 -15 32 -39 13 -25 27 -45 30 -45 4 0 10 -7 13 -15 6 -17 -27 -74 -66 -115
-13 -14 -32 -39 -43 -57 -10 -18 -22 -30 -27 -27 -4 3 -8 1 -8 -5 0 -14 -62
-101 -72 -101 -4 0 -8 -6 -8 -14 0 -8 -4 -16 -8 -18 -4 -2 -39 -43 -77 -93
-118 -155 -150 -194 -157 -194 -4 -1 -10 9 -14 21 -4 13 -22 55 -40 95 -19 40
-34 76 -34 80 0 3 -11 29 -24 57 -63 134 -96 206 -96 211 0 5 -51 122 -101
234 -11 24 -18 50 -15 58 3 8 2 12 -3 9 -4 -3 -20 29 -34 72 -14 42 -41 120
-61 172 -19 52 -33 96 -31 98 2 3 -2 11 -10 19 -8 8 -15 23 -15 33 0 10 -14
56 -30 101 -17 45 -29 88 -26 95 3 8 1 16 -4 19 -4 3 -17 33 -28 68 -33 105
-56 181 -59 198 -1 9 -14 52 -28 95 -13 44 -25 89 -25 100 0 12 -7 41 -16 65
-9 24 -17 55 -18 69 -2 14 -15 79 -30 145 -49 214 -65 288 -80 380 -36 214
-45 285 -40 300 3 8 2 15 -4 15 -5 0 -9 17 -10 38 0 20 -5 82 -12 137 -7 55
-13 125 -15 156 -1 31 -5 61 -9 67 -10 16 -7 600 4 672 11 78 26 194 35 270 3
30 8 69 10 85 3 17 10 83 16 147 21 229 89 610 122 688 6 14 11 41 13 60 3 42
37 189 64 280 11 36 24 87 30 113 6 27 20 67 31 89 11 22 16 37 10 33 -12 -6
-1 27 20 66 6 11 17 44 24 72 17 63 60 149 70 139 4 -4 4 5 0 21 -5 17 -3 27
4 27 6 0 11 8 11 18 0 10 3 22 8 26 4 4 7 11 8 14 0 4 6 20 12 35 7 16 12 35
12 43 0 8 5 14 10 14 6 0 10 8 11 18 0 14 1 14 8 -3 4 -11 4 -63 0 -115z"/>
<path d="M2355 7640 c3 -25 15 -78 26 -118 30 -107 31 -114 30 -150 -1 -24 2
-31 10 -26 8 4 9 3 5 -5 -6 -9 7 -93 30 -191 3 -14 6 -44 5 -68 0 -24 3 -40 8
-37 5 3 7 -3 4 -13 -4 -15 14 -139 32 -222 3 -14 6 -49 6 -78 0 -29 4 -50 8
-47 5 3 7 -3 4 -13 -4 -16 13 -159 33 -282 3 -14 5 -47 5 -75 0 -27 9 -128 20
-222 10 -95 22 -203 26 -240 9 -89 9 -839 0 -923 -4 -36 -14 -117 -23 -180 -9
-63 -18 -144 -20 -180 -4 -74 -4 -72 -32 -235 -11 -66 -20 -127 -20 -135 1 -8
-9 -59 -21 -113 -13 -54 -20 -105 -17 -113 3 -8 1 -12 -4 -9 -5 3 -9 -9 -9
-27 0 -18 -2 -42 -5 -53 -3 -11 -12 -46 -21 -79 -9 -32 -14 -65 -11 -73 4 -8
1 -11 -5 -7 -7 4 -10 -3 -8 -17 2 -22 -11 -78 -32 -139 -5 -14 -11 -41 -13
-60 -3 -19 -16 -69 -30 -112 -13 -42 -27 -89 -29 -105 -3 -15 -13 -45 -22 -67
-9 -21 -14 -45 -11 -53 3 -8 1 -11 -4 -8 -6 3 -10 -2 -10 -11 0 -10 -11 -45
-25 -80 -14 -34 -26 -70 -28 -80 -2 -11 -13 -41 -26 -67 -12 -27 -20 -51 -18
-54 3 -2 -6 -21 -19 -41 -14 -20 -22 -42 -19 -49 2 -8 0 -11 -5 -8 -6 3 -10
-5 -10 -19 0 -14 -4 -26 -8 -26 -5 0 -17 -19 -28 -42 -10 -24 -27 -55 -37 -70
-12 -15 -16 -32 -12 -40 5 -7 5 -10 0 -6 -7 7 -165 -293 -165 -313 0 -6 -10
-23 -21 -38 -13 -17 -18 -34 -14 -42 5 -8 4 -10 -3 -5 -7 4 -12 1 -12 -6 0 -7
-14 -40 -30 -73 -16 -32 -26 -63 -24 -67 3 -4 1 -8 -4 -8 -5 0 -14 -16 -20
-36 -12 -40 -2 -81 23 -90 8 -3 12 -10 10 -15 -3 -4 16 -31 43 -59 27 -27 47
-52 45 -53 -1 -2 57 -63 131 -135 74 -73 129 -129 122 -125 -6 3 7 -14 29 -38
22 -24 43 -45 48 -47 4 -2 17 -21 27 -43 32 -61 66 -50 76 26 1 11 12 42 24
68 12 27 23 58 24 70 1 12 13 44 25 71 13 27 24 58 25 70 2 11 11 39 20 61 19
42 45 112 45 120 1 3 8 21 16 41 8 20 12 41 8 47 -3 6 -1 7 5 3 8 -5 12 1 12
15 0 12 11 46 25 76 14 29 25 59 23 66 -1 6 3 21 8 32 6 11 19 45 29 75 10 30
28 84 41 120 12 36 22 72 22 80 0 8 10 40 21 70 12 30 19 61 16 68 -3 7 0 10
5 7 6 -3 11 5 11 19 2 32 2 32 18 79 7 21 10 45 7 53 -3 9 -1 12 4 9 6 -3 11
4 12 17 1 13 2 32 3 43 1 11 12 62 24 114 12 51 20 100 17 108 -4 9 -2 11 6 7
7 -5 9 2 6 20 -3 16 5 67 18 114 13 48 26 110 29 137 2 28 6 59 9 70 29 129
45 215 45 240 -1 17 7 68 16 115 10 47 19 108 19 136 1 29 4 50 8 48 4 -3 7
21 7 53 1 32 3 72 5 88 38 242 57 856 37 1220 -11 210 -26 391 -37 445 -2 14
-5 49 -5 79 0 48 -26 220 -45 306 -3 17 -6 37 -6 45 0 28 -29 165 -43 201 -8
20 -11 39 -8 42 5 6 -30 136 -69 252 -11 33 -23 76 -28 95 -4 19 -18 62 -31
95 -13 33 -22 66 -20 74 1 7 -1 11 -6 8 -4 -3 -9 8 -10 24 -1 15 -9 42 -18 58
-8 17 -15 38 -15 48 0 10 -13 44 -29 75 -16 31 -27 59 -25 61 15 14 -197 483
-233 517 -3 3 -2 -15 2 -40z m121 -263 c13 -27 24 -55 24 -63 0 -8 11 -37 25
-65 14 -27 23 -55 19 -62 -4 -7 -4 -9 1 -5 4 4 19 -23 32 -60 39 -112 83 -245
83 -253 0 -5 12 -34 26 -65 14 -31 23 -62 20 -70 -3 -7 6 -39 20 -70 14 -31
22 -64 19 -73 -3 -8 -2 -12 2 -7 4 4 13 -16 20 -46 7 -29 24 -96 37 -148 14
-52 28 -106 30 -120 3 -14 15 -74 26 -135 21 -108 28 -150 34 -210 2 -16 5
-32 6 -35 1 -3 4 -24 5 -48 8 -115 27 -302 36 -347 12 -67 18 -954 7 -1130
-10 -158 -11 -171 -27 -310 -6 -55 -13 -118 -15 -140 -3 -22 -9 -69 -15 -105
-5 -36 -17 -118 -26 -183 -9 -66 -20 -140 -25 -165 -6 -26 -19 -96 -30 -157
-11 -60 -26 -135 -34 -165 -7 -30 -17 -84 -20 -120 -4 -36 -13 -83 -21 -106
-7 -22 -17 -68 -21 -102 -3 -34 -11 -62 -16 -62 -5 0 -7 -4 -3 -10 3 -5 -6
-49 -21 -97 -14 -48 -30 -106 -35 -128 -6 -21 -14 -44 -18 -50 -4 -5 -8 -19
-9 -30 0 -11 -13 -54 -27 -95 -14 -41 -28 -86 -31 -100 -3 -13 -8 -27 -12 -30
-4 -3 -8 -12 -9 -20 -2 -15 -21 -69 -44 -125 -7 -16 -13 -34 -14 -40 0 -5 -7
-23 -14 -40 -7 -16 -17 -43 -21 -60 -19 -68 -72 -210 -81 -213 -5 -2 -7 -8 -4
-12 3 -5 1 -17 -4 -27 -6 -10 -25 -61 -42 -113 -17 -52 -35 -99 -40 -105 -5
-5 -9 -17 -9 -26 0 -22 -27 -32 -37 -14 -9 15 -126 144 -232 254 -39 41 -71
78 -71 83 0 5 -5 6 -10 3 -5 -3 -10 -3 -10 2 0 4 -25 35 -55 67 -30 33 -51 64
-48 69 3 6 1 7 -5 3 -6 -4 -17 5 -25 21 -15 29 -11 59 14 104 7 13 13 29 14
34 1 23 63 134 70 127 5 -4 5 -2 1 5 -4 7 22 71 57 144 36 72 67 127 69 123 3
-5 3 -4 2 3 -2 6 16 47 39 90 95 176 176 355 203 448 8 28 19 59 24 70 15 33
102 305 105 330 1 6 4 17 8 25 3 8 8 26 10 40 2 14 6 32 10 40 13 37 38 147
38 168 -1 13 4 20 9 17 6 -3 10 -2 10 4 0 5 3 18 6 28 5 15 4 16 -5 3 -13 -18
-6 33 14 95 15 47 37 149 34 161 -5 29 2 64 12 58 7 -4 9 0 5 14 -4 11 -3 29
3 39 5 10 14 54 20 98 6 44 19 139 30 210 11 72 25 177 31 235 6 58 13 116 15
130 15 86 27 286 31 490 2 129 6 249 9 265 4 21 2 26 -5 15 -6 -10 -9 27 -9
110 0 108 -12 286 -25 400 -7 53 -15 138 -20 205 -14 169 -18 213 -26 245 -4
19 -13 89 -20 155 -6 66 -20 171 -31 233 -11 62 -22 131 -24 155 -7 78 -17
142 -27 182 -11 42 -15 71 -23 175 -3 36 -2 58 1 50 4 -8 17 -37 30 -63z m501
-2299 c-2 -18 -4 -4 -4 32 0 36 2 50 4 33 2 -18 2 -48 0 -65z m0 -510 c-2 -18
-4 -6 -4 27 0 33 2 48 4 33 2 -15 2 -42 0 -60z"/>
<path d="M1549 1727 c-18 -28 -36 -56 -38 -62 -2 -5 -17 -25 -33 -43 -16 -18
-26 -37 -23 -43 4 -5 2 -9 -4 -9 -5 0 -23 -22 -39 -48 -16 -26 -37 -55 -46
-65 -10 -9 -14 -17 -9 -17 4 0 3 -4 -3 -8 -6 -4 -42 -47 -80 -97 -37 -49 -82
-105 -99 -122 -54 -56 -88 -129 -82 -175 6 -42 80 -199 106 -226 9 -8 16 -21
17 -28 1 -7 22 -48 46 -91 23 -43 52 -95 63 -116 11 -20 23 -37 28 -37 4 0 5
-5 2 -10 -3 -6 -1 -10 5 -10 6 0 8 -4 5 -10 -3 -5 5 -25 19 -43 15 -19 26 -39
26 -46 0 -7 4 -9 10 -6 5 3 7 0 5 -7 -3 -8 2 -23 12 -34 10 -11 27 -36 37 -57
11 -20 23 -37 28 -37 4 0 7 -3 7 -7 -4 -23 1 -31 51 -90 6 -7 8 -13 4 -13 -3
0 6 -20 20 -44 14 -25 26 -56 26 -70 0 -14 5 -28 11 -31 13 -9 16 -5 21 25 1
14 5 27 8 30 13 13 99 190 93 190 -5 0 -3 4 3 8 12 8 46 69 42 76 -2 2 4 12
13 22 22 26 51 84 42 84 -5 0 -3 4 2 8 16 11 45 60 45 76 0 8 4 16 9 18 10 4
94 168 86 168 -3 0 4 10 15 22 11 12 18 28 15 36 -2 7 0 10 5 7 6 -3 10 -1 10
5 0 6 12 37 27 68 14 31 26 62 26 69 0 7 4 13 9 13 5 0 6 5 3 10 -3 6 -2 10 2
10 15 0 43 92 43 138 0 45 -33 122 -52 122 -6 0 -8 3 -4 7 8 9 -114 133 -131
133 -7 0 -12 6 -11 13 2 6 -3 11 -10 9 -8 -1 -11 2 -8 7 4 5 -6 19 -20 30 -15
12 -23 21 -18 21 4 0 -6 15 -24 33 -17 17 -59 66 -93 107 -34 41 -66 74 -71
72 -4 -1 -7 4 -6 10 2 7 -3 12 -10 10 -8 -1 -11 1 -8 6 3 5 -9 22 -27 38 -64
59 -61 59 -98 1z m108 -55 c52 -52 83 -88 153 -176 25 -31 98 -111 163 -178
83 -85 117 -127 117 -144 0 -13 5 -24 10 -24 6 0 10 -19 10 -43 0 -49 -61
-212 -75 -200 -4 5 -5 3 -2 -3 6 -10 -65 -164 -116 -254 -8 -14 -36 -68 -62
-120 -27 -52 -56 -107 -66 -121 -10 -14 -21 -37 -24 -52 -4 -15 -12 -24 -18
-20 -6 3 -7 1 -3 -5 4 -7 2 -17 -3 -24 -6 -7 -30 -49 -52 -93 -53 -103 -56
-106 -79 -75 -10 13 -18 27 -17 30 1 3 -11 24 -26 48 -15 24 -32 54 -37 67 -5
14 -14 25 -20 25 -6 0 -8 5 -5 10 3 6 1 10 -4 10 -6 0 -11 4 -11 9 0 5 -17 38
-39 72 -21 35 -64 111 -96 169 -31 58 -71 130 -87 160 -59 106 -76 140 -72
140 3 0 -4 9 -14 21 -27 28 -60 121 -57 161 2 34 55 123 87 146 10 7 18 19 18
27 0 7 4 15 8 17 14 5 144 175 214 278 107 159 131 190 145 190 6 0 34 -22 60
-48z"/>
</g>
</svg>
